<?xml version="1.0" encoding="UTF-8"?>
<svg width="24px" height="24px" viewBox="0 0 24 24" version="1.1" xmlns="http://www.w3.org/2000/svg" xmlns:xlink="http://www.w3.org/1999/xlink">
    <!-- Generator: Sketch 52.6 (67491) - http://www.bohemiancoding.com/sketch -->
    <title>Combined Shape</title>
    <desc>Created with Sketch.</desc>
    <g id="app" stroke="none" stroke-width="1" fill="none" fill-rule="evenodd" opacity="0.693080357">
        <g id="Artboard" transform="translate(-1306.000000, -1074.000000)" fill="#6D7381">
            <g id="Group" transform="translate(1306.000000, 1076.000000)">
                <g id="Combined-Shape">
                    <path d="M6.36454739,2.95033383 C7.72541586,2.34087939 9.2683926,2 11,2 C16.5,2 20.097,5.43896104 22,10 C21.1722862,11.9838333 20.024096,13.7553881 18.5382316,15.1240183 L23.2132034,19.7989899 L21.7989899,21.2132034 L0.585786438,-3.92130772e-12 L2,-1.41421356 L6.36454739,2.95033383 Z M15.5323943,12.1181807 C15.8324914,11.4754025 16,10.7577023 16,10 C16,7.23333333 13.7666667,5 11,5 C10.2422977,5 9.52459749,5.16750858 8.88181931,5.46760575 L10.4619157,7.04770213 C10.6363998,7.01635751 10.8162181,7 11,7 C12.6620972,7 14,8.33790283 14,10 C14,10.1837819 13.9836425,10.3636002 13.9522979,10.5380843 L15.5323943,12.1181807 Z M3.46176826,4.87598182 L6.46760575,7.88181931 C6.16750858,8.52459749 6,9.24229772 6,10 C6,12.7666667 8.23333333,15 11,15 C11.7577023,15 12.4754025,14.8324914 13.1181807,14.5323943 L15.6354526,17.0496662 C14.2745841,17.6591206 12.7316074,18 11,18 C5.5,18 1.903,14.561039 0,10 C0.827713722,8.01616682 1.97590391,6.24461202 3.46176826,4.87598182 Z M8.04770213,9.46191569 L11.5380843,12.9522979 C11.3636002,12.9836425 11.1837819,13 11,13 C9.33790283,13 8,11.6620972 8,10 C8,9.81621808 8.01635751,9.63639984 8.04770213,9.46191569 Z"></path>
                </g>
            </g>
        </g>
    </g>
</svg>