<svg xmlns="http://www.w3.org/2000/svg" xmlns:xlink="http://www.w3.org/1999/xlink" width="20" height="15" viewBox="0 0 20 15"><defs><path id="say0a" d="M532 483.763c4.583 0 7.58 2.866 9.167 6.667-1.586 3.8-4.584 6.667-9.167 6.667s-7.58-2.866-9.167-6.667c1.586-3.8 4.584-6.667 9.167-6.667zm0 4.167c1.385 0 2.5 1.115 2.5 2.5s-1.115 2.5-2.5 2.5a2.494 2.494 0 0 1-2.5-2.5c0-1.385 1.115-2.5 2.5-2.5zm0 6.667a4.161 4.161 0 0 0 4.167-4.167 4.161 4.161 0 0 0-4.167-4.167 4.161 4.161 0 0 0-4.167 4.167 4.161 4.161 0 0 0 4.167 4.167z"/></defs><g><g transform="translate(-522 -483)"><use fill="#a7aebb" xlink:href="#say0a"/></g></g></svg>